<?xml version="1.0" standalone="no"?>
<!DOCTYPE svg PUBLIC "-//W3C//DTD SVG 20010904//EN"
 "http://www.w3.org/TR/2001/REC-SVG-20010904/DTD/svg10.dtd">
<svg version="1.0" xmlns="http://www.w3.org/2000/svg"
 width="1024.000000pt" height="1024.000000pt" viewBox="0 0 1024.000000 1024.000000"
 preserveAspectRatio="xMidYMid meet">
<metadata>
Created by potrace 1.11, written by Peter Selinger 2001-2013
</metadata>
<g transform="translate(0.000000,1024.000000) scale(0.100000,-0.100000)"
fill="#000000" stroke="none">
<path d="M6399 9560 c-4 -250 1 -2728 5 -2790 21 -282 115 -597 239 -805 206
-344 511 -624 854 -787 100 -47 284 -112 352 -123 19 -3 37 -8 41 -10 4 -2 22
-7 41 -10 19 -3 45 -7 59 -10 132 -24 464 -27 610 -6 354 50 669 191 947 425
244 204 428 451 548 736 31 73 90 268 99 326 4 22 11 64 16 94 5 30 13 75 16
100 6 42 13 2890 7 2890 -2 0 -291 -287 -642 -637 l-638 -638 -638 1 -637 1
-639 639 c-619 619 -639 638 -640 604z m1228 -2220 c90 -30 178 -123 198 -210
19 -82 9 -186 -24 -249 -24 -45 -86 -103 -135 -128 -74 -37 -190 -43 -269 -13
-75 28 -148 100 -175 172 -29 76 -26 206 6 268 42 81 103 133 186 161 58 18
154 18 213 -1z m1613 -6 c109 -43 187 -150 195 -269 8 -132 -57 -253 -170
-313 -45 -24 -61 -27 -150 -27 -91 0 -104 3 -150 29 -63 35 -80 51 -115 101
-24 35 -33 58 -47 115 -19 79 10 206 59 268 40 48 118 98 173 110 60 13 154 6
205 -14z"/>
<path d="M568 8315 c-2 -2 -20 -6 -41 -9 -116 -18 -230 -80 -329 -179 -159
-159 -223 -367 -179 -579 7 -32 12 -60 11 -63 0 -3 18 -41 41 -85 72 -140 202
-260 341 -317 71 -29 130 -40 257 -48 199 -13 348 -90 474 -246 74 -91 117
-187 134 -298 3 -20 6 -1233 7 -2696 1 -1463 5 -2669 8 -2680 4 -11 9 -37 13
-58 60 -411 424 -837 834 -978 113 -39 190 -55 316 -66 44 -4 895 -7 1890 -7
l1810 0 59 28 c72 35 90 49 127 103 50 72 57 122 55 388 -3 214 -5 247 -24
305 -77 234 -292 416 -529 446 -32 4 -206 7 -387 7 l-330 0 39 31 c21 17 433
327 914 688 482 361 881 661 886 665 6 5 33 25 60 46 28 20 61 46 75 56 14 10
131 98 260 195 129 96 248 186 264 198 16 13 34 26 41 30 9 6 12 -317 12
-1435 0 -793 3 -1464 7 -1492 18 -117 90 -199 216 -246 39 -15 722 -21 799 -7
102 18 185 83 229 178 l26 55 1 2097 1 2097 -21 -4 c-69 -16 -121 -26 -153
-30 -20 -3 -46 -7 -58 -9 -12 -2 -45 -7 -74 -11 -29 -4 -62 -9 -74 -12 -39 -9
-420 -10 -506 -2 -656 65 -1225 350 -1665 833 -105 115 -282 373 -358 523 -92
179 -169 395 -212 595 l-17 76 -131 -4 c-73 -2 -157 -6 -187 -9 -30 -3 -80 -8
-110 -11 -103 -10 -318 -42 -330 -49 -4 -2 -17 -6 -31 -8 -56 -11 -221 -48
-314 -72 -55 -14 -107 -28 -117 -30 -71 -16 -282 -83 -368 -117 -393 -153
-794 -423 -1140 -768 -171 -170 -333 -365 -469 -562 -30 -43 -54 -78 -56 -78
-1 0 -2 397 -2 883 0 485 -3 925 -7 977 -5 82 -16 160 -42 305 -11 59 -95 296
-132 372 -274 561 -826 980 -1402 1063 -41 6 -91 13 -110 16 -38 6 -298 13
-302 9z"/>
</g>
</svg>
